<svg width="104" height="104" viewBox="0 0 104 104" fill="none" xmlns="http://www.w3.org/2000/svg">
<g filter="url(#filter0_d)">
<path d="M52 83C71.8823 83 88 66.8823 88 47C88 27.1177 71.8823 11 52 11C32.1177 11 16 27.1177 16 47C16 66.8823 32.1177 83 52 83Z" fill="url(#paint0_linear)"/>
</g>
<path d="M66.387 56.095L61.745 51.452C61.283 51.0097 60.6648 50.7681 60.0253 50.7801C59.3858 50.7921 58.777 51.0567 58.332 51.516L55.993 53.854L55.531 53.597C53.4627 52.5296 51.5663 51.158 49.905 49.528C48.2728 47.8629 46.8986 45.9633 45.828 43.892C45.741 43.735 45.658 43.584 45.576 43.441L47.146 41.878L47.918 41.105C48.3778 40.6601 48.6425 40.051 48.6541 39.4113C48.6657 38.7716 48.4233 38.1533 47.98 37.692L43.338 33.045C42.8764 32.6019 42.258 32.3599 41.6183 32.3719C40.9785 32.3839 40.3696 32.6489 39.925 33.109L38.617 34.425L38.653 34.46C38.2036 35.0378 37.8405 35.6779 37.575 36.36C37.3342 36.9802 37.173 37.6283 37.095 38.289C36.482 43.378 38.8 48.018 45.106 54.321C53.818 63.032 60.839 62.374 61.141 62.342C61.8037 62.2629 62.4536 62.0996 63.075 61.856C63.7559 61.5905 64.3946 61.2273 64.971 60.778L65 60.808L66.326 59.508C66.7844 59.0623 67.0481 58.4534 67.0595 57.8141C67.0709 57.1747 66.8292 56.5568 66.387 56.095V56.095Z" fill="white"/>
<defs>
<filter id="filter0_d" x="0" y="0" width="104" height="104" filterUnits="userSpaceOnUse" color-interpolation-filters="sRGB">
<feFlood flood-opacity="0" result="BackgroundImageFix"/>
<feColorMatrix in="SourceAlpha" type="matrix" values="0 0 0 0 0 0 0 0 0 0 0 0 0 0 0 0 0 0 127 0" result="hardAlpha"/>
<feOffset dy="5"/>
<feGaussianBlur stdDeviation="8"/>
<feColorMatrix type="matrix" values="0 0 0 0 0.188235 0 0 0 0 0.188235 0 0 0 0 0.188235 0 0 0 0.2 0"/>
<feBlend mode="normal" in2="BackgroundImageFix" result="effect1_dropShadow"/>
<feBlend mode="normal" in="SourceGraphic" in2="effect1_dropShadow" result="shape"/>
</filter>
<linearGradient id="paint0_linear" x1="52" y1="11" x2="52" y2="83" gradientUnits="userSpaceOnUse">
<stop stop-color="#01CB63"/>
<stop offset="1" stop-color="#00D768"/>
</linearGradient>
</defs>
</svg>