<svg width="104" height="104" viewBox="0 0 104 104" fill="none" xmlns="http://www.w3.org/2000/svg">
<g filter="url(#filter0_d)">
<path d="M52 83C71.8823 83 88 66.8823 88 47C88 27.1177 71.8823 11 52 11C32.1177 11 16 27.1177 16 47C16 66.8823 32.1177 83 52 83Z" fill="url(#paint0_linear)"/>
</g>
<path d="M52.5 62.998C52.0575 62.9993 51.619 62.9134 51.2098 62.745C50.8005 62.5767 50.4285 62.3293 50.115 62.017L42.954 54.898C41.7011 53.6561 40.7066 52.1783 40.028 50.55C39.3493 48.9217 38.9999 47.1751 38.9999 45.411C38.9999 43.6469 39.3493 41.9003 40.028 40.272C40.7066 38.6437 41.7011 37.1659 42.954 35.924C45.4935 33.4068 48.9244 31.9946 52.5 31.9946C56.0756 31.9946 59.5065 33.4068 62.046 35.924C63.2989 37.1659 64.2933 38.6437 64.972 40.272C65.6507 41.9003 66.0001 43.6469 66.0001 45.411C66.0001 47.1751 65.6507 48.9217 64.972 50.55C64.2933 52.1783 63.2989 53.6561 62.046 54.898L54.887 62.014C54.5735 62.3271 54.2013 62.5752 53.7916 62.744C53.382 62.9129 52.9431 62.9992 52.5 62.998ZM52.5 40.383C51.5063 40.3893 50.5368 40.6897 49.7137 41.2464C48.8906 41.803 48.2507 42.591 47.8748 43.5108C47.499 44.4306 47.4039 45.4412 47.6016 46.415C47.7993 47.3888 48.281 48.2822 48.9858 48.9826C49.6907 49.683 50.5872 50.159 51.5622 50.3505C52.5372 50.5421 53.5472 50.4406 54.4646 50.0589C55.382 49.6772 56.1659 49.0324 56.7173 48.2057C57.2687 47.3791 57.563 46.4077 57.563 45.414C57.5572 44.0759 57.0209 42.7948 56.0717 41.8517C55.1226 40.9085 53.8381 40.3803 52.5 40.383V40.383Z" fill="white"/>
<defs>
<filter id="filter0_d" x="0" y="0" width="104" height="104" filterUnits="userSpaceOnUse" color-interpolation-filters="sRGB">
<feFlood flood-opacity="0" result="BackgroundImageFix"/>
<feColorMatrix in="SourceAlpha" type="matrix" values="0 0 0 0 0 0 0 0 0 0 0 0 0 0 0 0 0 0 127 0" result="hardAlpha"/>
<feOffset dy="5"/>
<feGaussianBlur stdDeviation="8"/>
<feColorMatrix type="matrix" values="0 0 0 0 0.188235 0 0 0 0 0.188235 0 0 0 0 0.188235 0 0 0 0.2 0"/>
<feBlend mode="normal" in2="BackgroundImageFix" result="effect1_dropShadow"/>
<feBlend mode="normal" in="SourceGraphic" in2="effect1_dropShadow" result="shape"/>
</filter>
<linearGradient id="paint0_linear" x1="52" y1="11" x2="52" y2="83" gradientUnits="userSpaceOnUse">
<stop stop-color="#01CB63"/>
<stop offset="1" stop-color="#00D768"/>
</linearGradient>
</defs>
</svg>
